<svg width="40" height="68" viewBox="0 0 40 68" fill="none" xmlns="http://www.w3.org/2000/svg">
<path fill-rule="evenodd" clip-rule="evenodd" d="M12.2348 60.4517C12.2242 60.4725 12.2135 60.5348 12.2135 60.5348L11.913 61.2915C11.8613 61.4259 11.8507 61.6129 11.799 61.7791C11.6131 62.4841 11.3546 62.8358 11.458 63.8003C11.5299 64.5161 11.7365 64.102 11.385 65.2733C11.3001 65.5639 11.3731 65.7598 11.7777 65.9261C11.9327 65.989 12.0995 65.9997 12.2551 66.0515C12.4406 66.1239 12.3994 66.1851 12.6804 66.2167C14.6415 66.4346 13.3343 66.611 14.9516 67.42C17.2319 68.5599 21.7023 67.3991 19.7311 65.3562C18.7155 64.309 17.3352 65.2528 16.8595 63.8636C16.8078 63.7283 16.7667 63.6242 16.7033 63.5107C16.4961 63.1378 16.0298 62.6393 16.0708 62.1935C16.0814 62.0688 16.1954 61.8721 16.2589 61.4053C16.3622 60.7633 16.2044 60.7525 16.1634 60.5654C16.1118 60.2858 16.1847 59.9126 16.1437 59.6229C16.1223 59.4876 16.1118 59.3323 16.0921 59.1976C16.0601 59.042 16.0404 58.938 16.0083 58.7719C15.8954 58.1393 15.833 57.6622 15.905 57.0091L16.0296 56.1171C16.1437 55.34 16.2149 53.1616 16.4858 52.6656L17.252 51.4825C17.4707 51.1405 17.8536 50.6118 17.8536 50.094C17.8536 49.6586 17.2836 48.9529 17.4615 47.6254L17.5222 46.2262C17.5132 45.8739 17.2836 45.9559 17.606 45.0021C17.7397 44.6084 17.9385 43.9135 18.2795 43.6854C18.57 43.8717 18.7458 44.0902 18.9863 44.3284C19.3054 44.6498 20.0109 45.1475 19.9076 45.4381C19.8149 45.6869 19.389 45.6042 20.1357 46.5368C20.2087 46.6407 20.2189 46.6811 20.2704 46.7862C19.9789 47.221 20.1671 47.1896 19.8863 47.9675C19.5868 48.7966 18.86 50.2078 19.3267 51.0465C19.6278 51.5762 19.8756 51.0886 19.8559 52.0954C19.8346 52.5929 19.0273 53.6183 19.2431 54.2197C19.2751 54.3029 19.2537 54.199 19.2947 54.3345C19.4503 54.7906 19.2021 57.6724 19.1307 58.2853C19.0791 58.7315 18.9543 59.0724 18.8802 59.6526C18.7769 60.5451 18.9212 60.8458 18.4662 61.6132C18.0624 62.2666 18.0624 62.7434 18.1139 63.5411C18.1348 63.9873 18.4359 64.3293 18.7565 64.5164C19.1914 64.776 19.5042 64.6625 20.0851 64.7546C20.3014 64.7861 22.127 64.8691 22.127 64.8792C22.1894 65.0563 24.5527 65.2842 24.9376 65.2842C25.7751 65.2842 26.4076 65.191 27.1874 65.1175C28.1103 65.0348 28.3901 64.3399 27.9125 63.7074C27.8182 63.5833 27.6844 63.5209 27.5598 63.3866C26.9777 62.8063 25.9211 62.6602 24.9786 62.7855C24.387 62.8578 24.4707 62.7434 24.1684 62.3698L23.402 61.4788C23.3717 61.4259 23.3717 61.4259 23.329 61.3849L23.247 61.2917C23.0071 61.032 22.7998 60.8764 22.4792 60.7006C22.4792 60.141 22.7696 59.6525 22.9764 59.1659C23.3809 58.2125 23.7551 57.2267 24.2004 56.315L24.8751 54.9561C25.102 54.4488 25.9531 52.7781 26.4182 52.4263C26.7299 52.1771 27.1552 51.5968 27.2175 51.1815C27.2799 50.8501 27.0626 50.6316 27.1034 50.3108C27.1764 49.7918 27.5916 49.4817 27.2799 48.6828C27.0294 48.0408 27.7148 48.1957 27.5703 46.1846C27.5295 45.5307 27.3619 45.0544 27.1036 44.6184C26.9688 44.3898 26.6784 43.6016 26.4817 43.2083C26.2009 42.637 25.8373 42.1393 25.5592 41.5798C25.5272 41.5068 25.5075 41.4764 25.4755 41.4039C25.4452 41.3213 25.4557 41.2892 25.4148 41.2067C25.2367 40.8236 25.2568 41.186 25.1637 40.4495C25.0816 39.817 25.0923 39.195 24.9979 38.5726C24.9569 38.2621 24.8641 37.9924 24.8524 37.7019C24.8338 37.3496 24.8945 37.1008 24.8945 36.7267C25.1439 36.593 25.6 36.4785 25.7338 36.1993C25.7231 36.634 25.7035 37.4014 25.6928 38.718C25.6928 38.718 25.7141 38.8951 25.9012 38.9051C26.0878 38.9254 27.0411 38.8951 27.2175 38.8951C27.3833 38.8951 27.3833 38.7805 27.3833 38.7805C27.4242 34.5813 27.5295 35.9913 27.5295 35.9913C27.5295 35.9913 27.54 35.9384 27.5703 35.866L27.7771 35.9081L27.8091 35.8048L27.7574 35.6806L27.9321 35.2963C28.1618 35.5035 28.3473 35.5344 28.6691 35.5142C29.7274 36.0006 30.7639 36.4894 31.8099 36.9658L34.8697 38.4168C35.2333 38.5826 35.6484 38.8841 35.8646 38.6033L36.1254 38.4584L36.1455 38.4168L36.8298 38.8212L37.0668 38.9673L37.0151 39.0706L37.6477 39.4431C37.6809 39.4132 37.7112 39.3812 37.7432 39.3603L38.0533 39.5368V39.5474L37.9072 39.7856C37.9072 39.7856 38.4471 40.1996 38.6324 39.8889H38.643L39.5671 40.4288C39.639 40.4703 39.7833 40.3564 39.8895 40.1692C40.0018 39.9933 40.0338 39.8069 39.9608 39.7647L39.0278 39.2154C39.1311 38.925 38.5609 38.6767 38.5609 38.6767L38.4469 38.8733L38.1458 38.697C38.1761 38.5931 38.1867 38.5308 38.1867 38.5308L38.3951 38.1684C38.8311 37.8263 38.862 37.3493 38.862 37.3493L38.8725 37.3594L39.1203 36.9443C39.1203 36.9443 39.5454 36.3846 39.4741 35.7729C39.4741 35.7729 39.2859 35.6067 38.965 35.4825C38.965 35.4825 38.5089 35.9285 38.3646 36.4981L38.124 36.9134L37.9902 36.841L37.6364 36.6336L37.3062 36.4359L37.0147 36.2708L36.8917 36.1882L36.8079 36.0634L35.1081 35.068C35.1599 34.8809 35.0564 34.6534 34.8379 34.5281C34.6206 34.4033 34.3712 34.4146 34.2464 34.55L33.9471 34.3736L32.7021 33.647L31.355 32.8492L30.4933 32.206L29.5906 31.6776C29.4978 31.5737 29.4259 31.4485 29.3332 31.3139C29.2709 31.2106 29.1871 31.1175 29.1159 31.0142C28.8345 30.651 28.4912 30.3294 28.1507 30.0292C27.9531 29.8629 27.757 29.7997 27.7978 29.437C27.8281 29.0852 27.9726 29.1786 27.9939 28.9188C28.0046 28.68 27.88 28.0893 27.8603 27.8096C27.8085 26.7206 27.8603 26.2225 27.7052 25.0414C27.6322 24.4501 27.4985 23.3205 27.5699 22.7598C27.602 22.5621 27.6946 22.5841 27.7766 22.4587C27.7766 21.9722 27.7356 21.8164 27.5699 21.4849C27.4137 21.1741 26.9773 20.1679 26.8846 19.7941C26.8127 19.4831 26.761 19.1099 26.6673 18.8202C26.2111 17.3679 25.8583 16.2581 25.205 14.9005C25.1534 14.7968 25.1534 14.8176 25.0921 14.7134C25.0501 14.6407 25.0404 14.5886 24.9978 14.5165L24.5422 13.78C24.1484 13.1371 24.3562 13.2205 23.5567 12.9821C23.3394 12.9198 23.2467 12.9302 23.0068 12.8892C22.3334 12.7746 21.8985 11.9552 21.2963 11.6444L20.5299 11.2188C20.2698 11.0536 20.3737 11.209 20.0632 11.2188C19.8963 10.898 19.9906 10.752 20.3934 10.752C20.7472 10.7427 20.9434 10.69 21.1321 10.5029C22.4164 9.24936 21.3798 9.20747 21.6185 8.53423C21.7219 8.24304 21.95 8.24304 22.105 8.04691C22.4471 7.62146 21.8465 6.62565 22.0533 6.4181C22.1263 6.38687 22.9033 6.43868 22.313 6.03501C22.6325 5.35021 22.4472 5.71333 22.924 5.38144C24.0645 4.61465 23.1005 4.51102 22.842 4.1889C21.918 3.01753 22.2095 1.47252 20.135 0.48752C16.6919 -1.15059 13.446 1.57599 13.446 5.14356C13.4353 5.96292 13.7274 6.29436 13.9129 6.9679C14.0072 7.34183 13.7686 7.79702 13.6448 8.15098C13.3943 8.80349 13.4673 8.96914 14.2454 9.01104C14.5981 9.03206 14.8779 8.97965 15.1778 9.05203C15.1778 9.4054 14.9706 9.49805 14.7959 9.68427C14.442 10.0165 13.446 10.525 12.9078 10.8981C12.1506 11.4164 9.9523 11.1877 9.37203 11.4681C9.17439 12.3181 9.42369 12.0177 8.41871 12.5568C8.28325 12.6198 8.26358 12.6402 8.14794 12.7124C7.58734 13.0652 7.22557 13.345 6.86199 13.9255C5.78403 15.6577 4.92503 17.5138 3.66836 19.1411C3.52404 19.3273 3.41111 19.338 3.26393 19.5355C2.65272 20.3548 2.75604 20.3747 2.51726 21.3398C2.22682 22.4794 2.4246 22.242 3.13028 22.9361L3.98132 23.7342C4.87051 24.4294 6.19912 25.0719 7.26762 25.4969C7.46435 25.5805 7.70252 25.6732 7.79683 25.819C7.56767 25.9429 7.46435 25.9855 7.25695 26.171C6.92446 26.4721 6.03227 27.2086 5.84636 27.4678C4.82952 27.229 4.43575 26.9282 3.78249 27.4054C3.39759 27.6852 3.50392 28.0171 3.29427 28.2658C2.95382 28.7007 2.81731 29.3444 2.64206 29.8629C2.48708 30.3197 2.31062 30.7233 2.06118 31.1176C1.71968 31.6572 1.31631 32.1855 0.932009 32.6934C0.196148 33.658 -0.489252 34.7154 0.474274 35.784L0.838901 36.3127C1.08714 36.634 2.63155 37.3705 3.16062 37.5873C3.86734 37.889 4.55154 38.1586 5.34807 38.0547C6.5732 37.8889 6.38504 38.0748 7.23608 37.2244C7.3394 37.1211 7.35006 37.1108 7.43221 36.9969C7.50519 36.9036 7.57653 36.8198 7.69336 36.7794C7.97194 36.6968 8.17092 36.8823 8.3669 36.9553C8.89432 37.1632 8.42757 37.0907 8.63481 38.3457C8.71801 38.8328 8.86398 39.3091 8.98863 39.7759C9.18476 40.5225 9.97348 42.8138 9.6515 43.5088L9.35145 44.1306C9.26841 44.3588 9.19527 44.5873 9.12228 44.7941C9.04029 45.0222 8.95649 45.2188 8.86383 45.4273C8.76051 45.6345 8.67792 45.811 8.58285 46.0383C8.4486 46.3597 8.60373 46.463 8.76036 46.6715C9.36196 47.5006 9.24693 48.4236 9.28898 49.7505C9.28898 50 9.3929 50.3517 9.34124 50.528C9.26825 50.7145 9.07047 50.8701 8.98848 51.0679C8.7087 51.7207 9.64069 52.6442 10.1182 52.9964C10.2002 53.0482 10.3356 53.12 10.3671 53.2145C10.5649 53.7009 10.1699 55.5266 11.4255 57.5894C12.6064 59.5286 11.612 59.4247 12.2952 60.3167L12.2348 60.4517ZM25.7553 35.877C25.7143 35.7534 25.6306 35.5972 25.5683 35.463C25.5896 35.4736 25.611 35.4736 25.6411 35.4832L25.8586 35.5664L25.8271 35.918C25.8271 35.918 25.7963 35.4421 25.7553 35.877ZM37.6067 37.6404L37.555 37.5988C37.5136 37.6814 37.4101 37.8785 37.2551 37.982L37.3691 38.0443L37.6067 37.6404Z" fill="white"/>
</svg>
