<svg width="28" height="28" viewBox="0 0 28 28" fill="none" xmlns="http://www.w3.org/2000/svg">
<path d="M14.3692 13.0629H15.789C15.9594 13.0629 16.1298 13.1765 16.2434 13.2901L17.0385 14.426L17.4361 13.1197C17.4929 12.9493 17.6065 12.7789 17.8337 12.7221L19.14 12.2677L18.0041 11.4726C17.8337 11.359 17.7769 11.1886 17.7769 11.0183V9.59837L16.641 10.4503C16.4706 10.5639 16.3002 10.6207 16.1298 10.5071L14.8235 10.0527L15.2779 11.359C15.3347 11.5294 15.3347 11.7566 15.2211 11.8702L14.3692 13.0629Z" fill="#798C49"/>
<path d="M11.1318 17.6633V16.2434L9.99594 17.0953C9.82556 17.2089 9.65517 17.2089 9.48479 17.1521L8.1785 16.6978L8.63286 18.0041C8.68965 18.1744 8.68965 18.4016 8.57606 18.5152L7.72414 19.6511H9.14401C9.3144 19.6511 9.48479 19.7647 9.59838 19.8783L10.3935 21.0142L10.7911 19.7079C10.8479 19.5375 10.9615 19.3671 11.1886 19.3103L12.4949 18.9128L11.359 18.1176C11.2454 18.0041 11.1318 17.8337 11.1318 17.6633Z" fill="#798C49"/>
<path d="M16.7436 2.40977L25.5788 11.2449L26.382 10.4417L17.5468 1.60657L16.7436 2.40977Z" fill="#C6BF66"/>
<path d="M26.6937 9.08721L26.8641 1.13589L18.9128 1.30628L26.6937 9.08721Z" fill="#C6BF66"/>
<path d="M1.41988 17.7769L10.2231 26.5801L24.7627 12.0406L15.9594 3.23732L1.41988 17.7769ZM14.3692 19.1968C14.3124 19.4239 14.1988 19.5943 13.9716 19.6511L11.8134 20.3327L11.1318 22.4909C11.075 22.7181 10.9047 22.8316 10.6775 22.8884C10.6207 22.8884 10.6207 22.8884 10.5639 22.8884C10.3935 22.8884 10.2231 22.7748 10.1095 22.6613L8.86004 20.787H6.58823C6.36105 20.787 6.19067 20.6734 6.07708 20.503C5.96349 20.3327 6.02028 20.1055 6.13387 19.8783L7.49696 18.0608L6.75862 15.9594C6.70182 15.7322 6.75862 15.5051 6.87221 15.3915C7.04259 15.2211 7.26977 15.1643 7.44016 15.2779L9.54158 16.0162L11.359 14.6531C11.5294 14.5396 11.7566 14.4828 11.9838 14.5963C12.1542 14.7099 12.3245 14.8803 12.2677 15.1075V17.3793L14.0852 18.6856C14.3124 18.7992 14.3692 18.9696 14.3692 19.1968ZM18.0609 8.00811C18.2312 7.89452 18.4584 7.83773 18.6856 7.95132C18.856 8.06491 19.0264 8.23529 18.9696 8.46247L18.9128 10.7343L20.7302 12.0406C20.9006 12.1542 21.0142 12.3813 20.9574 12.6085C20.9006 12.8357 20.787 13.0061 20.5598 13.0629L18.4016 13.7444L17.7201 15.9026C17.6633 16.1298 17.4929 16.2434 17.2657 16.3002C17.2089 16.3002 17.2089 16.3002 17.1521 16.3002C16.9817 16.3002 16.8114 16.1866 16.6978 16.073L15.3915 14.2556L13.1197 14.3124C12.8925 14.3124 12.7221 14.1988 12.6085 14.0284C12.4949 13.858 12.5517 13.6308 12.6653 13.4036L14.0284 11.5862L13.2901 9.48478C13.2333 9.2576 13.2901 9.03042 13.4036 8.91683C13.574 8.74645 13.8012 8.68965 13.9716 8.80324L16.073 9.54158L18.0609 8.00811Z" fill="#C6BF66"/>
<path d="M27.432 0L17.5497 0.227181C17.3793 0.227181 17.2657 0.283976 17.1521 0.397566L0.170385 17.3793C-0.0567951 17.6065 -0.0567951 17.9473 0.170385 18.1744L9.76876 27.8296C9.88235 27.9432 9.99594 28 10.1663 28C10.3367 28 10.4503 27.9432 10.5639 27.8296L27.5456 10.8479C27.6592 10.7343 27.716 10.6207 27.716 10.4503L28 0.567951C28 0.397566 27.9432 0.283976 27.8296 0.170385C27.7728 0.056795 27.6024 0 27.432 0ZM10.2231 26.5801L1.41988 17.7769L15.9594 3.23732L24.7627 12.0406L10.2231 26.5801ZM25.5578 11.2454L16.7546 2.44219L17.5497 1.64706L26.3529 10.4503L25.5578 11.2454ZM26.6937 9.08722L18.9128 1.30629L26.8641 1.07911L26.6937 9.08722Z" fill="#1F2310"/>
<path d="M14.142 18.6288L12.2677 17.3793V15.1075C12.2677 14.8803 12.1542 14.7099 11.9838 14.5963C11.8134 14.4827 11.5862 14.5395 11.359 14.6531L9.54158 16.0162L7.44016 15.2779C7.21298 15.2211 6.9858 15.2779 6.87221 15.3915C6.70182 15.5619 6.64503 15.789 6.75862 15.9594L7.49695 18.0608L6.13387 19.8783C6.02028 20.0487 5.96349 20.2759 6.07708 20.503C6.19067 20.6734 6.36105 20.8438 6.58823 20.787H8.86004L10.1663 22.6045C10.2799 22.7748 10.4503 22.8316 10.6207 22.8316C10.6775 22.8316 10.6775 22.8316 10.7343 22.8316C10.9615 22.7748 11.1318 22.6612 11.1886 22.4341L11.8702 20.2759L14.0284 19.5943C14.2556 19.5375 14.3692 19.3671 14.426 19.1399C14.3692 18.9696 14.3124 18.7992 14.142 18.6288ZM11.1886 19.3103C11.0183 19.3671 10.8479 19.4807 10.7911 19.7079L10.3935 21.0142L9.59837 19.8783C9.48478 19.7647 9.3144 19.6511 9.14401 19.6511H7.72413L8.57606 18.5152C8.68965 18.3448 8.74645 18.1744 8.63286 18.004L8.1785 16.6978L9.48478 17.1521C9.65517 17.2089 9.88235 17.1521 9.99594 17.0953L11.1318 16.2434V17.6633C11.1318 17.8337 11.2454 18.004 11.359 18.1176L12.4949 18.9128L11.1886 19.3103Z" fill="#1F2310"/>
<path d="M13.5172 8.74646C13.3469 8.91684 13.2901 9.14402 13.4037 9.31441L14.142 11.4158L12.7789 13.2333C12.6653 13.4037 12.6085 13.6308 12.7221 13.858C12.8357 14.0284 13.0061 14.142 13.2333 14.142L15.5051 14.0852L16.8114 15.9026C16.925 16.073 17.0953 16.1298 17.2657 16.1298C17.3225 16.1298 17.3225 16.1298 17.3793 16.1298C17.6065 16.073 17.7769 15.9594 17.8337 15.7323L18.5152 13.574L20.6734 12.8925C20.9006 12.8357 21.0142 12.6653 21.071 12.4381C21.1278 12.211 21.0142 11.9838 20.8438 11.8702L19.0264 10.5639L19.0832 8.2921C19.0832 8.06492 18.9696 7.89453 18.7992 7.78094C18.6288 7.66735 18.4016 7.72415 18.1744 7.83774L16.357 9.20082L14.2556 8.46248C13.9148 8.57607 13.6876 8.63287 13.5172 8.74646ZM15.2779 11.4158L14.8235 10.1095L16.1298 10.5639C16.3002 10.6207 16.5274 10.5639 16.641 10.5071L17.7769 9.65518V11.0751C17.7769 11.2454 17.8905 11.4158 18.0041 11.5294L19.14 12.3246L17.8337 12.7221C17.6633 12.7789 17.4929 12.8925 17.4361 13.1197L17.0385 14.426L16.2434 13.2901C16.1298 13.1197 15.9594 13.0629 15.789 13.0629H14.3692L15.2211 11.927C15.3347 11.7566 15.3347 11.5862 15.2779 11.4158Z" fill="#1F2310"/>
</svg>
