<svg width="28" height="28" viewBox="0 0 28 28" fill="none" xmlns="http://www.w3.org/2000/svg">
<path d="M14.0282 16.507L4.95774 16.5634C4.90141 16.9014 4.90141 17.2394 4.90141 17.5775C4.90141 22.5915 9.01408 26.7042 14.0282 26.7042C19.0422 26.7042 23.1549 22.5915 23.1549 17.5775C23.1549 17.2394 23.1549 16.9014 23.0986 16.5634L14.0282 16.507ZM15.8873 23.2676H12.2253C11.8873 23.2676 11.662 23.0423 11.662 22.7042C11.662 22.3662 11.8873 22.1408 12.2253 22.1408H15.8873C16.2253 22.1408 16.4507 22.3662 16.4507 22.7042C16.4507 23.0423 16.169 23.2676 15.8873 23.2676Z" fill="#C6BF66"/>
<path d="M25.6901 12.2817C25.4084 12.2817 25.1268 12.0563 25.1268 11.7183C25.0141 2.42254 20.5634 1.12676 15.7183 1.12676C15.3803 1.12676 15.0986 1.12676 14.8169 1.12676C14.2535 1.12676 13.8028 1.12676 13.2394 1.12676C12.9577 1.12676 12.6197 1.12676 12.338 1.12676C7.49295 1.12676 3.04225 2.42254 2.98591 11.7183C2.98591 12 2.70422 12.2817 2.42253 12.2817C1.97183 12.2817 1.23943 12.4507 1.23943 12.6761V17.9155C1.35211 18.0845 1.6338 18.3662 2.19718 18.5352C2.19718 17.8028 2.30986 16.7324 2.87324 16.0563C3.21126 15.662 3.66197 15.4366 4.22535 15.4366H4.28169L14.0282 15.3803L23.7746 15.4366C24.338 15.4366 24.8451 15.662 25.1831 16.0563C25.7465 16.7324 25.8591 17.8028 25.8591 18.5352C26.4225 18.3662 26.7042 18.0845 26.8169 17.9155V12.6761C26.8169 12.4507 26.1408 12.2817 25.6901 12.2817ZM16.2253 2.3662C17.4084 2.19718 18.3662 3.04226 19.2113 3.77465C19.7746 4.28169 20.338 4.78873 20.8451 4.78873C21.1831 4.78873 21.4084 5.07042 21.4084 5.35211C21.4084 5.6338 21.1268 5.91549 20.8451 5.91549C19.9437 5.85916 19.2113 5.23944 18.5352 4.61972C17.8591 4 17.1831 3.38028 16.507 3.49296C16.2253 3.5493 15.8873 3.32395 15.8873 3.04226C15.7183 2.70423 15.9437 2.42254 16.2253 2.3662ZM8.84507 10.8169C8.39436 11.6056 7.49295 11.9437 6.59155 12.2817C5.69014 12.6197 4.9014 12.9577 4.67605 13.5775C4.61971 13.8028 4.39436 13.9718 4.16901 13.9718C4.11267 13.9718 4.05633 13.9718 4 13.9155C3.71831 13.8028 3.54929 13.5211 3.66197 13.1831C4.05633 12.0563 5.23943 11.6056 6.25352 11.2113C6.98591 10.9296 7.66197 10.6479 7.88732 10.2535C8.05633 9.97183 8.39436 9.91549 8.67605 10.0282C8.9014 10.1972 9.01408 10.5352 8.84507 10.8169ZM10.5352 4.78873C10.3662 4.90141 9.18309 5.91549 8.11267 6.8169C8 6.92958 7.88732 6.92958 7.71831 6.92958C7.54929 6.92958 7.38028 6.87324 7.2676 6.76056C7.04225 6.53521 7.09859 6.19718 7.32394 5.97183C7.83098 5.52113 9.57746 4.05634 9.85915 3.83099C10.1408 3.66197 10.4789 3.71831 10.6479 4C10.8732 4.28169 10.8169 4.61972 10.5352 4.78873ZM13.8028 13.9155C13.7465 13.9155 13.6901 13.9718 13.6338 13.9718C13.4084 13.9718 13.1831 13.8028 13.1268 13.5775C13.0704 13.3521 12.3944 12 11.7183 10.7606C11.5493 10.4789 11.662 10.1408 11.9437 10.0282C12.2253 9.85916 12.5634 9.97183 12.6761 10.2535C13.0141 10.8732 14.0282 12.9014 14.1408 13.2394C14.2535 13.5211 14.0845 13.8592 13.8028 13.9155ZM18.1972 8.45071C17.9718 8.45071 16.4507 8.50704 15.0422 8.61972C15.0422 8.61972 15.0422 8.61972 14.9859 8.61972C14.7042 8.61972 14.4225 8.39437 14.4225 8.11268C14.4225 7.77465 14.6479 7.5493 14.9296 7.49296C15.6056 7.43662 17.8591 7.32394 18.2535 7.32394C18.5915 7.32394 18.8169 7.60563 18.7606 7.94366C18.8169 8.22535 18.5352 8.45071 18.1972 8.45071ZM24.4507 14.7042C24.2817 14.7606 24.1127 14.7606 23.9437 14.7606C23.2676 14.7606 22.5352 14.4225 21.8592 14.1408C21.0141 13.7465 20.169 13.3521 19.5493 13.6901C19.2676 13.8028 18.9296 13.6901 18.8169 13.4085C18.7042 13.1268 18.8169 12.7887 19.0986 12.6761C20.169 12.169 21.3521 12.6761 22.3662 13.1268C23.0986 13.4648 23.7183 13.7465 24.2253 13.6338C24.507 13.5775 24.8451 13.7465 24.9014 14.0282C24.9577 14.3099 24.7887 14.6479 24.4507 14.7042Z" fill="#798C49"/>
<path d="M26.2535 11.1549C25.9155 0 18.8169 0 15.7183 0C15.3803 0 15.0986 0 14.7606 0C14.1972 0 13.7465 0 13.1831 0C12.9014 0 12.5634 0 12.2254 0C9.1831 0 2.02817 0 1.74648 11.1549C0.957746 11.2676 0.056338 11.662 0 12.6197V18.0282C0 18.0845 -5.45676e-08 18.1972 0.056338 18.2535C0.056338 18.3099 0.676056 19.5493 2.70423 19.662C2.70423 19.662 2.70423 19.662 2.76056 19.662C3.09859 19.662 3.32394 19.4366 3.32394 19.0986C3.32394 19.0423 3.32394 18.9859 3.32394 18.9296C3.26761 18.2535 3.32394 17.1831 3.71831 16.7324C3.77465 16.6761 3.77465 16.6761 3.83099 16.6197C3.83099 16.9014 3.77465 17.2394 3.77465 17.5211C3.77465 23.1549 8.39437 27.7746 14.0282 27.7746C19.662 27.7746 24.2817 23.1549 24.2817 17.5211C24.2817 17.2394 24.2817 16.9577 24.2254 16.6197C24.2817 16.6197 24.2817 16.6761 24.338 16.6761C24.7324 17.1268 24.7887 18.3662 24.6761 18.9859C24.6761 19.1549 24.7324 19.3239 24.8451 19.4366C24.9577 19.5493 25.1268 19.6056 25.2958 19.6056C27.2676 19.493 27.8873 18.2535 27.9437 18.1972C28 18.1408 28 18.0282 28 17.9718V12.5634C27.9437 11.662 26.9859 11.3239 26.2535 11.1549ZM14.0282 26.7042C9.01408 26.7042 4.90141 22.5915 4.90141 17.5775C4.90141 17.2394 4.90141 16.9014 4.95775 16.5634L14.0282 16.507L23.0986 16.5634C23.1549 16.9014 23.1549 17.2394 23.1549 17.5775C23.1549 22.5915 19.0423 26.7042 14.0282 26.7042ZM26.8732 17.9155C26.7606 18.0845 26.4789 18.3662 25.9155 18.5352C25.9155 17.8028 25.8028 16.7324 25.2394 16.0563C24.9014 15.662 24.4507 15.4366 23.831 15.4366L14.0282 15.3803L4.28169 15.4366H4.22535C3.66197 15.4366 3.21127 15.662 2.87324 16.0563C2.30986 16.7324 2.19718 17.8028 2.19718 18.5352C1.6338 18.3662 1.29577 18.0845 1.23944 17.9155V12.6761C1.23944 12.4507 1.91549 12.2817 2.42254 12.2817C2.70423 12.2817 2.98592 12.0563 2.98592 11.7183C3.04225 2.42253 7.49296 1.12676 12.338 1.12676C12.6761 1.12676 12.9577 1.12676 13.2394 1.12676C13.8028 1.12676 14.2535 1.12676 14.8169 1.12676C15.0986 1.12676 15.4366 1.12676 15.7183 1.12676C20.5634 1.12676 25.0141 2.42253 25.0704 11.7183C25.0704 12 25.3521 12.2817 25.6338 12.2817C26.0845 12.2817 26.8169 12.4507 26.8169 12.6761V17.9155H26.8732Z" fill="#1F2310"/>
<path d="M15.8873 22.1408H12.2254C11.8873 22.1408 11.662 22.3662 11.662 22.7042C11.662 23.0423 11.8873 23.2676 12.2254 23.2676H15.8873C16.2254 23.2676 16.4507 23.0423 16.4507 22.7042C16.4507 22.4225 16.169 22.1408 15.8873 22.1408Z" fill="#1F2310"/>
<path d="M9.9155 3.83099C9.63381 4 7.88733 5.52113 7.38029 5.97183C7.15493 6.19718 7.0986 6.53521 7.32395 6.76056C7.43662 6.87324 7.60564 6.92958 7.77465 6.92958C7.88733 6.92958 8.05634 6.87324 8.16902 6.8169C9.1831 5.91549 10.3662 4.90141 10.5916 4.78873C10.8732 4.61972 10.9296 4.28169 10.7606 4C10.5352 3.77465 10.1972 3.66197 9.9155 3.83099Z" fill="#515E27"/>
<path d="M12.7324 10.2535C12.5634 9.97183 12.2254 9.85915 12 10.0282C11.7183 10.1972 11.6056 10.5352 11.7746 10.7606C12.3944 12 13.0704 13.3521 13.1831 13.5775C13.2394 13.8028 13.4648 13.9718 13.6901 13.9718C13.7465 13.9718 13.8028 13.9718 13.8592 13.9155C14.1408 13.8028 14.3099 13.5211 14.1972 13.1831C14.0282 12.9014 13.0141 10.8732 12.7324 10.2535Z" fill="#515E27"/>
<path d="M18.3099 7.32395C17.9718 7.26761 15.7183 7.43662 14.9859 7.49296C14.6479 7.49296 14.4225 7.77465 14.4789 8.11268C14.4789 8.39437 14.7606 8.61972 15.0423 8.61972C15.0423 8.61972 15.0423 8.61972 15.0986 8.61972C16.4507 8.50704 18.0282 8.45071 18.2535 8.45071C18.5915 8.45071 18.8169 8.22535 18.8732 7.94366C18.8169 7.60564 18.5915 7.32395 18.3099 7.32395Z" fill="#515E27"/>
<path d="M8.67606 10.0282C8.39437 9.85915 8.05634 9.97183 7.88732 10.2535C7.66197 10.6479 6.98592 10.9296 6.25352 11.2113C5.23944 11.6056 4.05634 12.0563 3.66197 13.1831C3.5493 13.4648 3.71831 13.8028 4 13.9155C4.05634 13.9155 4.11268 13.9718 4.16901 13.9718C4.39437 13.9718 4.61972 13.8028 4.67606 13.5775C4.90141 12.9014 5.74648 12.6197 6.59155 12.2817C7.49296 11.9437 8.39437 11.6056 8.84507 10.8169C9.01408 10.5352 8.90141 10.1972 8.67606 10.0282Z" fill="#515E27"/>
<path d="M16.3944 3.49296C17.0704 3.38028 17.7465 4 18.4225 4.61972C19.0986 5.23944 19.831 5.91549 20.7324 5.91549C21.0141 5.91549 21.2958 5.69014 21.2958 5.35211C21.2958 5.01408 21.0704 4.78873 20.7324 4.78873C20.2254 4.78873 19.7183 4.28169 19.0986 3.77465C18.2535 3.04225 17.3521 2.19718 16.1127 2.3662C15.831 2.42253 15.6056 2.70423 15.662 2.98592C15.831 3.32394 16.1127 3.49296 16.3944 3.49296Z" fill="#515E27"/>
<path d="M24.169 13.6338C23.7183 13.7465 23.0423 13.4648 22.3099 13.1268C21.2958 12.6761 20.169 12.1127 19.0423 12.6761C18.7606 12.7887 18.6479 13.1268 18.7606 13.4085C18.8732 13.6901 19.2113 13.8028 19.493 13.6901C20.1127 13.4085 20.9014 13.7465 21.8028 14.1408C22.4789 14.4789 23.2113 14.7606 23.8873 14.7606C24.0563 14.7606 24.2254 14.7606 24.3944 14.7042C24.6761 14.6479 24.9014 14.3099 24.7887 14.0282C24.7887 13.6901 24.507 13.5211 24.169 13.6338Z" fill="#515E27"/>
</svg>
