<svg width="24" height="28" viewBox="0 0 24 28" fill="none" xmlns="http://www.w3.org/2000/svg">
<path d="M11.188 16.094L9.75214 18.2479L11.906 16.812L11.547 16.453L11.188 16.094Z" fill="#515E27"/>
<path d="M14 4.24786V1.19658H9.8718V4.24786C10.5299 4.1282 11.2479 4.06837 11.906 4.06837C12.6838 4.06837 13.3419 4.1282 14 4.24786Z" fill="#515E27"/>
<path d="M12.3846 15.6154L12.7436 15.9744L14.1795 13.8205L12.0256 15.2564L12.3846 15.6154Z" fill="#515E27"/>
<path d="M11.9658 7.29914C7.11965 7.29914 3.23077 11.2479 3.23077 16.0342C3.23077 20.8803 7.11965 24.7692 11.9658 24.7692C16.812 24.7692 20.7008 20.8205 20.7008 16.0342C20.7008 11.188 16.812 7.29914 11.9658 7.29914ZM16.812 12.0256L13.3419 17.2906C13.3419 17.3504 13.282 17.3504 13.282 17.3504L13.2222 17.4103L7.95726 20.8803C7.8376 20.9402 7.71795 21 7.59829 21C7.4188 21 7.29914 20.9402 7.17948 20.8205C7 20.641 6.94017 20.282 7.11965 20.0427L10.5897 14.7778C10.5897 14.7179 10.6496 14.7179 10.6496 14.7179L10.7094 14.6581L15.9744 11.188C16.2137 11.0085 16.5128 11.0684 16.7521 11.2479C16.9316 11.4273 16.9914 11.7863 16.812 12.0256Z" fill="#C6BF66"/>
<path d="M11.9658 5.26496C6.04273 5.26496 1.19658 10.1111 1.19658 16.0342C1.19658 21.9573 6.04273 26.8034 11.9658 26.8034C17.8889 26.8034 22.735 21.9573 22.735 16.0342C22.735 10.0513 17.8889 5.26496 11.9658 5.26496ZM11.9658 25.9658C6.46154 25.9658 2.03419 21.4786 2.03419 16.0342C2.03419 10.5299 6.52136 6.10257 11.9658 6.10257C17.4103 6.10257 21.8974 10.5897 21.8974 16.0342C21.8974 21.5385 17.4701 25.9658 11.9658 25.9658Z" fill="#C6BF66"/>
<path d="M15.1966 4.48718V0.598291C15.1966 0.239316 14.9573 0 14.5983 0H9.2735C8.91453 0 8.67521 0.239316 8.67521 0.598291V4.54701C3.64957 5.92308 0 10.5299 0 16.0342C0 22.6752 5.38461 28 11.9658 28C18.547 28 23.9316 22.6154 23.9316 16.0342C23.9316 10.5299 20.2821 5.92308 15.1966 4.48718ZM9.93162 1.19658H14.0598V4.24786C13.4017 4.1282 12.6838 4.06838 12.0256 4.06838C11.3077 4.06838 10.6496 4.1282 9.99145 4.24786V1.19658H9.93162ZM11.9658 26.8034C6.04274 26.8034 1.19658 21.9573 1.19658 16.0342C1.19658 10.1111 6.04274 5.26496 11.9658 5.26496C17.8889 5.26496 22.735 10.1111 22.735 16.0342C22.735 21.9573 17.8889 26.8034 11.9658 26.8034Z" fill="#1F2310"/>
<path d="M11.9658 6.10256C6.46155 6.10256 2.03419 10.5897 2.03419 16.0342C2.03419 21.5385 6.46155 25.9658 11.9658 25.9658C17.4701 25.9658 21.8974 21.4786 21.8974 16.0342C21.8974 10.5299 17.4701 6.10256 11.9658 6.10256ZM11.9658 24.7692C7.11966 24.7692 3.23078 20.8205 3.23078 16.0342C3.23078 11.188 7.17949 7.29914 11.9658 7.29914C16.7521 7.29914 20.7009 11.2479 20.7009 16.0342C20.7009 20.8803 16.812 24.7692 11.9658 24.7692Z" fill="#1F2310"/>
<path d="M15.9744 11.188L10.7692 14.6581C10.7094 14.6581 10.7094 14.7179 10.7094 14.7179L10.6496 14.7778L7.17949 20.0427C7 20.282 7.05983 20.5812 7.23932 20.8205C7.35897 20.9402 7.47863 21 7.65812 21C7.77778 21 7.89744 20.9402 8.01709 20.8803L13.2821 17.4102C13.3419 17.4102 13.3419 17.3504 13.3419 17.3504L13.4017 17.2906L16.8718 12.0256C17.0513 11.7863 16.9915 11.4872 16.812 11.2479C16.5726 11.0684 16.2137 11.0085 15.9744 11.188ZM9.75214 18.2479L11.188 16.094L11.547 16.453L11.906 16.812L9.75214 18.2479ZM12.7436 15.9743L12.3846 15.6154L12.0256 15.2564L14.1795 13.8205L12.7436 15.9743Z" fill="#1F2310"/>
</svg>
