<svg width="36" height="36" viewBox="0 0 36 36" fill="none" xmlns="http://www.w3.org/2000/svg">
<g clip-path="url(#clip0_7_154)">
<path d="M28.5 10.5H27.9C27.3 10.5 26.85 10.2 26.55 9.6L24.75 6.15C24.3 5.1 23.25 4.5 22.05 4.5H13.8C12.75 4.5 11.7 5.1 11.1 6.15L9.45 9.6C9.15 10.2 8.7 10.5 8.1 10.5H7.5C4.2 10.5 1.5 13.2 1.5 16.5V25.5C1.5 28.8 4.2 31.5 7.5 31.5H28.5C31.8 31.5 34.5 28.8 34.5 25.5V16.5C34.5 13.2 31.8 10.5 28.5 10.5ZM18 25.5C14.7 25.5 12 22.8 12 19.5C12 16.2 14.7 13.5 18 13.5C21.3 13.5 24 16.2 24 19.5C24 22.8 21.3 25.5 18 25.5Z" fill="#798C49"/>
<path d="M28.5 10.5H27.9C27.3 10.5 26.85 10.2 26.55 9.6L24.75 6.15C24.3 5.1 23.25 4.5 22.05 4.5H13.8C12.75 4.5 11.7 5.1 11.1 6.15L9.45 9.6C9.15 10.2 8.7 10.5 8.1 10.5H7.5C4.2 10.5 1.5 13.2 1.5 16.5V25.5C1.5 28.8 4.2 31.5 7.5 31.5H28.5C31.8 31.5 34.5 28.8 34.5 25.5V16.5C34.5 13.2 31.8 10.5 28.5 10.5ZM18 25.5C14.7 25.5 12 22.8 12 19.5C12 16.2 14.7 13.5 18 13.5C21.3 13.5 24 16.2 24 19.5C24 22.8 21.3 25.5 18 25.5Z" fill="#798C49"/>
</g>
<defs>
<clipPath id="clip0_7_154">
<rect width="36" height="36" fill="white"/>
</clipPath>
</defs>
</svg>
