<svg width="16" height="16" viewBox="0 0 16 16" fill="none" xmlns="http://www.w3.org/2000/svg">
<path d="M8.00002 9.58482C10.2057 9.58482 11.9937 7.43918 11.9937 4.79241C11.9937 2.14563 10.2057 0 8.00002 0C5.79438 0 4.00635 2.14563 4.00635 4.79241C4.00635 7.43918 5.79438 9.58482 8.00002 9.58482Z" fill="#798C49"/>
<path d="M15.8276 13.6584C15.1087 12.2206 13.7509 11.0225 11.9937 10.3037C11.5144 10.1439 10.9553 10.1439 10.556 10.3836C9.75722 10.8628 8.95848 11.1024 8 11.1024C7.04152 11.1024 6.24278 10.8628 5.44405 10.3836C5.04468 10.2238 4.48557 10.1439 4.00633 10.3836C2.24911 11.1024 0.891262 12.3005 0.1724 13.7382C-0.386714 14.7766 0.491894 15.9747 1.69 15.9747H14.31C15.5081 15.9747 16.3867 14.7766 15.8276 13.6584Z" fill="#798C49"/>
</svg>
